<svg width="17" height="17" viewBox="0 0 17 17" fill="none" xmlns="http://www.w3.org/2000/svg">
<path fill-rule="evenodd" clip-rule="evenodd" d="M9.21401 3.43617C9.03266 3.59831 8.74867 3.59831 8.56732 3.43617C8.4242 3.3082 8.2709 3.19107 8.10921 3.0856C7.46578 2.66589 6.68928 2.43066 5.89067 2.43066C3.83733 2.43066 2.224 4.01323 2.224 6.02739C2.224 6.74307 2.39449 7.42267 2.68655 8.06923C3.5924 10.0764 5.66784 11.7702 7.45433 13.2282C7.71636 13.442 7.97217 13.6508 8.21717 13.8548C8.6059 14.1784 9.17543 14.1784 9.56416 13.8548C9.80916 13.6508 10.065 13.442 10.327 13.2282C12.1135 11.7702 14.1889 10.0764 15.0947 8.06933C15.3868 7.42275 15.5573 6.74311 15.5573 6.02739C15.5573 4.01323 13.944 2.43066 11.8907 2.43066C11.0921 2.43066 10.3156 2.66589 9.67212 3.0856C9.51043 3.19107 9.35714 3.3082 9.21401 3.43617ZM8.25023 12.1513C8.62238 12.4555 9.15896 12.4555 9.5311 12.1513C9.53588 12.1473 9.54066 12.1434 9.54545 12.1395C9.73148 11.9874 9.91728 11.8355 10.0997 11.6849C10.83 11.0819 11.5449 10.4693 12.1779 9.82735C12.9613 9.03289 13.5435 8.26821 13.8826 7.51346C14.1062 7.01513 14.224 6.52155 14.224 6.02739C14.224 4.7737 13.2319 3.764 11.8907 3.764C11.0984 3.764 10.359 4.10648 9.89753 4.63807L9.19272 5.44995C9.03325 5.63365 8.74808 5.63365 8.58861 5.44995L7.88381 4.63807C7.42232 4.10648 6.68295 3.764 5.89067 3.764C4.54939 3.764 3.55733 4.7737 3.55733 6.02739C3.55733 6.52155 3.67516 7.01513 3.89876 7.51346C4.23779 8.26821 4.82001 9.03289 5.6034 9.82735C6.23642 10.4693 6.9513 11.0819 7.68162 11.6849C7.86406 11.8355 8.04985 11.9874 8.23589 12.1395C8.24067 12.1434 8.24545 12.1473 8.25023 12.1513Z" fill="#A6AAB7"/>
</svg>
