<svg width="25" height="25" viewBox="0 0 25 25" fill="none" xmlns="http://www.w3.org/2000/svg">
<g clip-path="url(#clip0)">
<path d="M23.2158 5.85465C22.5648 4.69665 21.8583 4.48365 20.4198 4.40265C18.9828 4.30515 15.3693 4.26465 12.2388 4.26465C9.10234 4.26465 5.48734 4.30515 4.05184 4.40115C2.61634 4.48365 1.90834 4.69515 1.25134 5.85465C0.58084 7.01115 0.23584 9.00315 0.23584 12.5101C0.23584 12.5131 0.23584 12.5146 0.23584 12.5146C0.23584 12.5176 0.23584 12.5191 0.23584 12.5191V12.5221C0.23584 16.0141 0.58084 18.0211 1.25134 19.1656C1.90834 20.3236 2.61484 20.5336 4.05034 20.6311C5.48734 20.7151 9.10234 20.7646 12.2388 20.7646C15.3693 20.7646 18.9828 20.7151 20.4213 20.6326C21.8598 20.5351 22.5663 20.3251 23.2173 19.1671C23.8938 18.0226 24.2358 16.0156 24.2358 12.5236C24.2358 12.5236 24.2358 12.5191 24.2358 12.5161C24.2358 12.5161 24.2358 12.5131 24.2358 12.5116C24.2358 9.00315 23.8938 7.01115 23.2158 5.85465Z" fill="#F44336"/>
<path d="M9.23584 17.0146V8.01465L16.7358 12.5146L9.23584 17.0146Z" fill="#FAFAFA"/>
</g>
<defs>
<clipPath id="clip0">
<rect width="24" height="24" fill="white" transform="translate(0.23584 0.514648)"/>
</clipPath>
</defs>
</svg>
