<svg width="21" height="28" viewBox="0 0 21 28" fill="none" xmlns="http://www.w3.org/2000/svg">
    <g clip-path="url(#clip3)">
        <path fill-rule="evenodd" clip-rule="evenodd"
            d="M10.9771 13.3776C9.59622 13.3776 8.47705 12.2445 8.47705 10.8464C8.47705 9.44828 9.59622 8.31512 10.9771 8.31512C12.3579 8.31512 13.4771 9.44828 13.4771 10.8464C13.4771 12.2445 12.3579 13.3776 10.9771 13.3776ZM10.9771 6.62762C8.67622 6.62762 6.81038 8.51594 6.81038 10.8464C6.81038 13.1768 8.67622 15.0651 10.9771 15.0651C13.2779 15.0651 15.1437 13.1768 15.1437 10.8464C15.1437 8.51594 13.2779 6.62762 10.9771 6.62762ZM10.9771 25.1901C9.59122 25.1977 2.64372 14.3741 2.64372 10.8464C2.64372 6.18719 6.37455 2.40887 10.9771 2.40887C15.5795 2.40887 19.3104 6.18719 19.3104 10.8464C19.3104 14.3268 12.3412 25.1977 10.9771 25.1901ZM10.9771 0.721375C5.45455 0.721375 0.977051 5.25484 0.977051 10.8464C0.977051 15.0803 9.31455 27.7307 10.9771 27.7214C12.6137 27.7307 20.9771 15.0229 20.9771 10.8464C20.9771 5.25484 16.4995 0.721375 10.9771 0.721375Z"
            fill="white" />
    </g>
    <defs>
        <clipPath id="clip3">
            <rect width="20" height="27" fill="white" transform="translate(0.977051 0.721375)" />
        </clipPath>
    </defs>
</svg>