<svg width="25" height="25" xmlns="http://www.w3.org/2000/svg">
    <g>
        <path
            d="M16.736.515h-9a7.5 7.5 0 00-7.5 7.5v9a7.5 7.5 0 007.5 7.5h9a7.5 7.5 0 007.5-7.5v-9a7.5 7.5 0 00-7.5-7.5zm5.25 16.5a5.256 5.256 0 01-5.25 5.25h-9a5.256 5.256 0 01-5.25-5.25v-9a5.256 5.256 0 015.25-5.25h9a5.256 5.256 0 015.25 5.25v9z"
            fill="#FFC107" />
        <path
            d="M12.236 6.515a6 6 0 100 12 6 6 0 000-12zm0 9.75a3.755 3.755 0 01-3.75-3.75 3.754 3.754 0 013.75-3.75 3.754 3.754 0 013.75 3.75 3.755 3.755 0 01-3.75 3.75z"
            fill="#FFC107" />
        <path d="M18.686 6.864a.8.8 0 100-1.599.8.8 0 000 1.599z" fill="#FFC107" />
    </g>
    
</svg>