<svg width="17" height="17" viewBox="0 0 17 17" fill="none" xmlns="http://www.w3.org/2000/svg">
<g clip-path="url(#clip0)">
<path d="M8.89058 6.14479C7.68645 6.14479 6.69058 7.18022 6.69058 8.4305C6.69058 9.68155 7.68645 10.7162 8.89058 10.7162C10.094 10.7162 11.0906 9.68155 11.0906 8.4305C11.0906 7.18022 10.094 6.14479 8.89058 6.14479Z" fill="#A6AAB7"/>
<path d="M8.89058 3.09717C3.32311 3.09717 1.64988 8.13869 1.63457 8.18974C1.58432 8.34621 1.58402 8.51466 1.63384 8.67126C1.64988 8.72231 3.32311 13.7638 8.89058 13.7638C14.4581 13.7638 16.1313 8.72231 16.1466 8.67126C16.1968 8.51479 16.1971 8.34634 16.1473 8.18974C16.1313 8.13869 14.4581 3.09717 8.89058 3.09717ZM8.89058 12.24C5.43648 12.24 3.85499 9.94501 3.2831 8.80768C3.16334 8.5695 3.16336 8.29153 3.28315 8.05335C3.85578 6.91475 5.43755 4.62098 8.89058 4.62098C12.3447 4.62098 13.9262 6.91599 14.4981 8.05332C14.6178 8.29151 14.6178 8.56948 14.498 8.80765C13.9254 9.94625 12.3436 12.24 8.89058 12.24Z" fill="#A6AAB7"/>
</g>
<defs>
<clipPath id="clip0">
<rect width="16" height="16" fill="white" transform="translate(0.890625 0.430664)"/>
</clipPath>
</defs>
</svg>
