<svg width="41" height="41" viewBox="0 0 41 41" fill="none" xmlns="http://www.w3.org/2000/svg">
<path d="M20.7264 7.65039C17.1023 7.65039 16.6506 7.66789 15.2323 7.72789C13.8081 7.79789 12.8448 8.01872 11.9948 8.34872C11.1052 8.68457 10.2995 9.2104 9.63394 9.88956C8.95289 10.5536 8.42677 11.3597 8.09311 12.2504C7.76311 13.1004 7.54228 14.0637 7.47228 15.4879C7.40811 16.9071 7.39478 17.3579 7.39478 20.9821C7.39478 24.6062 7.41228 25.0579 7.47228 26.4762C7.54228 27.8962 7.76311 28.8637 8.09311 29.7137C8.42896 30.6033 8.95479 31.409 9.63394 32.0746C10.2979 32.7556 11.1041 33.2817 11.9948 33.6154C12.8448 33.9412 13.8123 34.1662 15.2323 34.2362C16.6514 34.3004 17.1023 34.3137 20.7264 34.3137C24.3506 34.3137 24.8023 34.2962 26.2206 34.2362C27.6406 34.1662 28.6081 33.9404 29.4581 33.6154C30.3477 33.2795 31.1534 32.7537 31.8189 32.0746C32.5009 31.4113 33.0271 30.605 33.3598 29.7137C33.6856 28.8637 33.9106 27.8962 33.9806 26.4762C34.0448 25.0571 34.0581 24.6062 34.0581 20.9821C34.0581 17.3579 34.0406 16.9062 33.9806 15.4879C33.9106 14.0679 33.6848 13.0954 33.3598 12.2504C33.0239 11.3608 32.4981 10.5551 31.8189 9.88956C31.1557 9.20763 30.3493 8.68137 29.4581 8.34872C28.6081 8.01872 27.6406 7.79789 26.2206 7.72789C24.8014 7.66372 24.3506 7.65039 20.7264 7.65039ZM20.7264 10.0504C24.2856 10.0504 24.7106 10.0679 26.1173 10.1279C27.4148 10.1887 28.1214 10.4054 28.5906 10.5887C29.1706 10.8028 29.6956 11.1436 30.1273 11.5862C30.5691 12.0161 30.9086 12.5398 31.1206 13.1187C31.3039 13.5879 31.5206 14.2946 31.5814 15.5921C31.6414 16.9987 31.6589 17.4246 31.6589 20.9829C31.6589 24.5412 31.6414 24.9671 31.5764 26.3737C31.5064 27.6712 31.2898 28.3779 31.1073 28.8471C30.8548 29.4729 30.5731 29.9104 30.1081 30.3837C29.675 30.8236 29.1503 31.1627 28.5714 31.3771C28.1081 31.5604 27.3914 31.7771 26.0889 31.8379C24.6748 31.8979 24.2581 31.9154 20.6898 31.9154C17.1214 31.9154 16.7056 31.8979 15.2898 31.8329C13.9923 31.7629 13.2764 31.5462 12.8073 31.3637C12.1739 31.1112 11.7398 30.8296 11.2748 30.3646C10.8056 29.8954 10.5073 29.4487 10.2773 28.8279C10.0906 28.3646 9.87727 27.6479 9.80811 26.3454C9.76061 24.9479 9.73811 24.5146 9.73811 20.9629C9.73811 17.4129 9.76061 16.9787 9.80811 15.5637C9.87727 14.2612 10.0906 13.5462 10.2773 13.0812C10.5073 12.4471 10.8064 12.0137 11.2748 11.5446C11.7389 11.0804 12.1739 10.7804 12.8073 10.5454C13.2764 10.3629 13.9748 10.1462 15.2773 10.0812C16.6914 10.0304 17.1081 10.0121 20.6714 10.0121L20.7264 10.0504ZM20.7264 14.1396C19.8276 14.1392 18.9374 14.316 18.1069 14.6599C17.2764 15.0037 16.5218 15.5078 15.8862 16.1434C15.2505 16.779 14.7464 17.5337 14.4026 18.3642C14.0588 19.1947 13.8819 20.0848 13.8823 20.9837C13.8819 21.8826 14.0588 22.7727 14.4026 23.6033C14.7464 24.4338 15.2505 25.1884 15.8862 25.824C16.5218 26.4596 17.2764 26.9637 18.1069 27.3076C18.9374 27.6514 19.8276 27.8282 20.7264 27.8279C21.6253 27.8282 22.5155 27.6514 23.346 27.3076C24.1765 26.9637 24.9311 26.4596 25.5667 25.824C26.2023 25.1884 26.7065 24.4338 27.0503 23.6033C27.3941 22.7727 27.5709 21.8826 27.5706 20.9837C27.5709 20.0848 27.3941 19.1947 27.0503 18.3642C26.7065 17.5337 26.2023 16.779 25.5667 16.1434C24.9311 15.5078 24.1765 15.0037 23.346 14.6599C22.5155 14.316 21.6253 14.1392 20.7264 14.1396ZM20.7264 25.4279C18.2698 25.4279 16.2823 23.4404 16.2823 20.9837C16.2823 18.5271 18.2698 16.5396 20.7264 16.5396C23.1831 16.5396 25.1706 18.5271 25.1706 20.9837C25.1706 23.4404 23.1831 25.4279 20.7264 25.4279ZM29.4464 13.8662C29.446 14.2909 29.277 14.6981 28.9765 14.9983C28.676 15.2985 28.2687 15.4671 27.8439 15.4671C27.6339 15.4671 27.426 15.4257 27.232 15.3453C27.0379 15.265 26.8617 15.1472 26.7132 14.9987C26.5647 14.8502 26.4469 14.6739 26.3665 14.4799C26.2861 14.2858 26.2448 14.0779 26.2448 13.8679C26.2448 13.6579 26.2861 13.4499 26.3665 13.2559C26.4469 13.0619 26.5647 12.8856 26.7132 12.7371C26.8617 12.5886 27.0379 12.4708 27.232 12.3905C27.426 12.3101 27.6339 12.2687 27.8439 12.2687C28.7248 12.2687 29.4464 12.9854 29.4464 13.8662Z" fill="white"/>
</svg>
