<svg width="34" height="33" viewBox="0 0 34 33" fill="none" xmlns="http://www.w3.org/2000/svg">
<path d="M17.3704 14.924H30.9491C31.0989 15.7352 31.1738 16.5101 31.1738 17.2487C31.1738 19.8761 30.6057 22.222 29.4695 24.2864C28.3332 26.3507 26.7131 27.9641 24.6092 29.1264C22.5053 30.2888 20.0924 30.87 17.3704 30.87C15.4101 30.87 13.5434 30.5037 11.7703 29.7712C9.99731 29.0387 8.46775 28.0489 7.18168 26.8018C5.8956 25.5547 4.87486 24.0714 4.11945 22.3521C3.36403 20.6328 2.98633 18.8227 2.98633 16.9218C2.98633 15.0209 3.36403 13.2108 4.11945 11.4915C4.87486 9.77215 5.8956 8.28895 7.18168 7.04185C8.46775 5.79475 9.99731 4.80494 11.7703 4.07241C13.5434 3.33989 15.4101 2.97363 17.3704 2.97363C21.1162 2.97363 24.3314 4.19047 27.0159 6.62413L23.1015 10.2746C21.5657 8.8338 19.6553 8.11339 17.3704 8.11339C15.7597 8.11339 14.2707 8.50689 12.9035 9.2939C11.5362 10.0809 10.4531 11.1494 9.65394 12.4994C8.85482 13.8495 8.45527 15.3236 8.45527 16.9218C8.45527 18.52 8.85482 19.9942 9.65394 21.3442C10.4531 22.6942 11.5362 23.7627 12.9035 24.5497C14.2707 25.3367 15.7597 25.7302 17.3704 25.7302C18.4567 25.7302 19.4556 25.5849 20.3671 25.2943C21.2785 25.0037 22.0277 24.6405 22.6146 24.2046C23.2014 23.7688 23.7133 23.2723 24.1504 22.7154C24.5874 22.1584 24.9089 21.6317 25.1149 21.1353C25.3209 20.6389 25.4614 20.1667 25.5363 19.7187H17.3704V14.924Z" fill="white"/>
</svg>
