<svg width="25" height="25" viewBox="0 0 25 25" fill="none" xmlns="http://www.w3.org/2000/svg">
<path d="M19.5868 4.40977C19.3768 4.42504 19.1707 4.47431 18.9765 4.55563H18.9739C18.7875 4.62954 17.9012 5.00237 16.5538 5.56751L11.7252 7.60108C8.26052 9.05971 4.85466 10.4961 4.85466 10.4961L4.89521 10.4804C4.89521 10.4804 4.66039 10.5576 4.41511 10.7257C4.26357 10.8221 4.13318 10.9483 4.03181 11.0966C3.91146 11.2732 3.81465 11.5433 3.85062 11.8226C3.90949 12.2949 4.21561 12.5781 4.43538 12.7344C4.65778 12.8927 4.8697 12.9666 4.8697 12.9666H4.87493L8.06887 14.0426C8.21211 14.5024 9.04216 17.2313 9.24166 17.8599C9.35939 18.2353 9.47386 18.4701 9.6171 18.6494C9.68644 18.7409 9.76755 18.8175 9.86501 18.8789C9.91567 18.9084 9.96969 18.9317 10.0259 18.9483L9.99321 18.9404C10.003 18.9431 10.0109 18.9509 10.0181 18.9535C10.0442 18.9607 10.0619 18.9633 10.0952 18.9686C10.6009 19.1216 11.0071 18.8077 11.0071 18.8077L11.0299 18.7893L12.9157 17.0723L16.0763 19.4971L16.1482 19.5278C16.8069 19.8169 17.4741 19.656 17.8266 19.3721C18.1818 19.0863 18.3198 18.7207 18.3198 18.7207L18.3427 18.6618L20.7851 6.14965C20.8544 5.84092 20.8721 5.55181 20.7955 5.27121C20.7166 4.98722 20.5344 4.74297 20.2847 4.58637C20.075 4.4589 19.8319 4.39737 19.5868 4.40977ZM19.5207 5.75066C19.5181 5.79186 19.526 5.78729 19.5076 5.86643V5.87363L17.0882 18.2556C17.0777 18.2733 17.06 18.3119 17.0116 18.3504C16.9606 18.391 16.92 18.4165 16.7075 18.3321L12.8418 15.3684L10.5067 17.4969L10.9972 14.3637L17.3132 8.47691C17.5735 8.2349 17.4865 8.18388 17.4865 8.18388C17.5048 7.88692 17.0934 8.09689 17.0934 8.09689L9.12915 13.0307L9.12654 13.0176L5.30925 11.7323V11.7297L5.29944 11.7278C5.30613 11.7255 5.31268 11.7229 5.31906 11.7199L5.33999 11.7094L5.36027 11.7022C5.36027 11.7022 8.76875 10.2659 12.2335 8.80723C13.9681 8.07661 15.7159 7.34076 17.06 6.773C18.4042 6.20852 19.3978 5.79448 19.454 5.77224C19.5076 5.75131 19.4821 5.75131 19.5207 5.75131V5.75066Z" fill="#A6AAB7"/>
</svg>
