<svg width="34" height="33" viewBox="0 0 34 33" fill="none" xmlns="http://www.w3.org/2000/svg">
<path d="M25.0221 2.25903L21.2033 2.25293C16.9131 2.25293 14.1406 5.08638 14.1406 9.4719V12.8003H10.301C9.96924 12.8003 9.70056 13.0683 9.70056 13.3988V18.2213C9.70056 18.5518 9.96954 18.8194 10.301 18.8194H14.1406V30.9881C14.1406 31.3186 14.4093 31.5863 14.741 31.5863H19.7506C20.0824 31.5863 20.3511 31.3183 20.3511 30.9881V18.8194H24.8404C25.1722 18.8194 25.4409 18.5518 25.4409 18.2213L25.4427 13.3988C25.4427 13.2401 25.3793 13.0881 25.2669 12.9758C25.1544 12.8635 25.0012 12.8003 24.8419 12.8003H20.3511V9.97878C20.3511 8.62263 20.6755 7.93418 22.449 7.93418L25.0215 7.93326C25.3529 7.93326 25.6216 7.66533 25.6216 7.33514V2.85716C25.6216 2.52727 25.3532 2.25964 25.0221 2.25903Z" fill="white"/>
</svg>
