<svg width="25" height="25" viewBox="0 0 25 25" fill="none" xmlns="http://www.w3.org/2000/svg">
<path d="M19.1755 16.8214L19.9645 16.207L19.9642 16.2067L19.1755 16.8214ZM14.1649 5.41825L14.5612 4.50013L14.5605 4.49983L14.1649 5.41825ZM13.7413 4.94727L12.7784 5.2171L12.7791 5.21955L13.7413 4.94727ZM9.99233 4.94816L10.9553 5.2177L10.956 5.2153L9.99233 4.94816ZM9.56869 5.41825L9.17307 4.49983L9.17228 4.50017L9.56869 5.41825ZM6.42348 10.8357L7.42348 10.8362V10.8357H6.42348ZM4.55603 16.8214L5.34477 17.4361L5.34482 17.436L4.55603 16.8214ZM13.633 20.3967L12.8648 19.7565H12.8648L13.633 20.3967ZM10.0975 20.3967L10.8657 19.7565L10.0975 20.3967ZM19.9642 16.2067C19.3791 15.4558 19.0274 15.0576 18.7633 14.3867C18.5 13.7179 18.3101 12.7162 18.3101 10.8357H16.3101C16.3101 12.8234 16.5062 14.113 16.9023 15.1192C17.2975 16.1233 17.8784 16.7838 18.3867 17.436L19.9642 16.2067ZM18.3101 10.8357C18.3101 8.89556 17.8347 7.47694 17.078 6.43923C16.3264 5.40841 15.365 4.84709 14.5612 4.50013L13.7686 6.33636C14.3848 6.60235 14.996 6.97853 15.462 7.61758C15.923 8.24974 16.3101 9.23334 16.3101 10.8357H18.3101ZM14.5605 4.49983C14.6098 4.52104 14.6319 4.54271 14.642 4.55371C14.6516 4.56428 14.6824 4.60039 14.7035 4.67498L12.7791 5.21955C12.9267 5.74115 13.3329 6.14867 13.7693 6.33666L14.5605 4.49983ZM14.7042 4.67743C14.3888 3.55204 13.4169 2.27539 11.8657 2.27539V4.27539C12.171 4.27539 12.5956 4.56481 12.7784 5.2171L14.7042 4.67743ZM11.8657 2.27539C10.3145 2.27539 9.34146 3.5527 9.02867 4.68102L10.956 5.2153C11.1362 4.56505 11.5606 4.27539 11.8657 4.27539V2.27539ZM9.02934 4.67862C9.0504 4.6034 9.08211 4.56535 9.0937 4.55274C9.10558 4.53983 9.12754 4.51944 9.17307 4.49983L9.96431 6.33666C10.3953 6.15103 10.8067 5.74884 10.9553 5.2177L9.02934 4.67862ZM9.17228 4.50017C8.36851 4.84722 7.40678 5.40747 6.65504 6.4381C5.8983 7.4756 5.42348 8.89421 5.42348 10.8357H7.42348C7.42348 9.23113 7.81044 8.24795 8.27088 7.61669C8.73632 6.97858 9.3472 6.60311 9.96509 6.33632L9.17228 4.50017ZM5.42348 10.8351C5.42245 12.7157 5.2321 13.7175 4.96857 14.3864C4.70422 15.0575 4.35239 15.4558 3.76724 16.2067L5.34482 17.436C5.85306 16.7838 6.4339 16.1234 6.82939 15.1195C7.22571 14.1134 7.42239 12.8239 7.42348 10.8362L5.42348 10.8351ZM3.7673 16.2066C2.80474 17.4416 3.66347 19.2754 5.2922 19.2754V17.2754C5.28304 17.2754 5.29767 17.2745 5.31955 17.2885C5.33812 17.3004 5.34976 17.3154 5.35617 17.3286C5.3623 17.3412 5.36667 17.3582 5.3648 17.3798C5.36262 17.4051 5.35266 17.426 5.34477 17.4361L3.7673 16.2066ZM5.2922 19.2754H18.4435V17.2754H5.2922V19.2754ZM18.4435 19.2754C20.0771 19.2754 20.9183 17.4321 19.9645 16.207L18.3864 17.4357C18.3774 17.4242 18.3677 17.4028 18.3656 17.3784C18.3639 17.3577 18.368 17.3418 18.3737 17.3301C18.3796 17.3178 18.3909 17.3026 18.4103 17.2901C18.4332 17.2753 18.4498 17.2754 18.4435 17.2754V19.2754ZM13.3652 18.2754C13.3652 18.8588 13.1705 19.3896 12.8648 19.7565L14.4012 21.0369C15.0332 20.2786 15.3652 19.2833 15.3652 18.2754H13.3652ZM12.8648 19.7565C12.5635 20.1181 12.1981 20.2754 11.8652 20.2754V22.2754C12.8585 22.2754 13.7649 21.8005 14.4012 21.0369L12.8648 19.7565ZM11.8652 20.2754C11.5324 20.2754 11.167 20.1181 10.8657 19.7565L9.32925 21.0369C9.96561 21.8005 10.872 22.2754 11.8652 22.2754V20.2754ZM10.8657 19.7565C10.5599 19.3896 10.3652 18.8588 10.3652 18.2754H8.36523C8.36523 19.2833 8.69731 20.2786 9.32925 21.0369L10.8657 19.7565Z" fill="#A6AAB7"/>
</svg>
