<svg width="30" height="39" viewBox="0 0 30 39" fill="none" xmlns="http://www.w3.org/2000/svg">
<path d="M14.9995 0.119141C7.01951 0.119141 0.526855 6.6118 0.526855 14.5918C0.526855 17.7498 1.52436 20.7505 3.41396 23.268L14.1074 37.6702C14.1341 37.7051 14.1749 37.7184 14.2046 37.7496C14.739 38.3218 15.5101 38.1778 15.8909 37.6702C18.9702 33.5614 24.6146 25.8879 26.7847 22.9934C26.7847 22.9934 26.7854 22.9911 26.7862 22.9896L26.7995 22.9718C28.5481 20.5152 29.4722 17.6177 29.4722 14.5918C29.4722 6.6118 22.9795 0.119141 14.9995 0.119141ZM14.9995 22.3996C10.703 22.3996 7.1917 18.8883 7.1917 14.5918C7.1917 10.2953 10.703 6.78398 14.9995 6.78398C19.296 6.78398 22.8073 10.2953 22.8073 14.5918C22.8073 18.8883 19.296 22.3996 14.9995 22.3996Z" fill="#0191D3"/>
</svg>
