<svg width="35" height="34" viewBox="0 0 35 34" fill="none" xmlns="http://www.w3.org/2000/svg">
<path fill-rule="evenodd" clip-rule="evenodd" d="M17.4181 0.462891C16.4553 0.462891 15.6749 1.24336 15.6749 2.20612V15.8877L2.42633 15.8877C1.46358 15.8877 0.683105 16.6682 0.683105 17.631C0.683105 18.5937 1.46357 19.3742 2.42633 19.3742H15.6749V32.1896C15.6749 33.1524 16.4553 33.9329 17.4181 33.9329C18.3809 33.9329 19.1613 33.1524 19.1613 32.1896V19.3742H32.4099C33.3726 19.3742 34.1531 18.5937 34.1531 17.631C34.1531 16.6682 33.3726 15.8877 32.4099 15.8877L19.1613 15.8877V2.20612C19.1613 1.24336 18.3809 0.462891 17.4181 0.462891Z" fill="white"/>
</svg>
