<svg width="25" height="25" viewBox="0 0 25 25" fill="none" xmlns="http://www.w3.org/2000/svg">
<path d="M12.3442 4.04492C10.1697 4.04492 9.89871 4.05542 9.04771 4.09142C8.19321 4.13342 7.61521 4.26592 7.10521 4.46392C6.57145 4.66543 6.08805 4.98093 5.68871 5.38842C5.28009 5.78682 4.96441 6.27049 4.76421 6.80492C4.56621 7.31492 4.43371 7.89292 4.39171 8.74742C4.35321 9.59892 4.34521 9.86942 4.34521 12.0439C4.34521 14.2184 4.35571 14.4894 4.39171 15.3404C4.43371 16.1924 4.56621 16.7729 4.76421 17.2829C4.96573 17.8167 5.28122 18.3001 5.68871 18.6994C6.08711 19.1081 6.57078 19.4237 7.10521 19.6239C7.61521 19.8194 8.19571 19.9544 9.04771 19.9964C9.89921 20.0349 10.1697 20.0429 12.3442 20.0429C14.5187 20.0429 14.7897 20.0324 15.6407 19.9964C16.4927 19.9544 17.0732 19.8189 17.5832 19.6239C18.117 19.4224 18.6004 19.1069 18.9997 18.6994C19.4089 18.3015 19.7246 17.8177 19.9242 17.2829C20.1197 16.7729 20.2547 16.1924 20.2967 15.3404C20.3352 14.4889 20.3432 14.2184 20.3432 12.0439C20.3432 9.86942 20.3327 9.59842 20.2967 8.74742C20.2547 7.89542 20.1192 7.31192 19.9242 6.80492C19.7227 6.27115 19.4072 5.78775 18.9997 5.38842C18.6017 4.97927 18.118 4.66351 17.5832 4.46392C17.0732 4.26592 16.4927 4.13342 15.6407 4.09142C14.7892 4.05292 14.5187 4.04492 12.3442 4.04492ZM12.3442 5.48492C14.4797 5.48492 14.7347 5.49542 15.5787 5.53142C16.3572 5.56792 16.7812 5.69792 17.0627 5.80792C17.4107 5.93638 17.7257 6.14085 17.9847 6.40642C18.2498 6.66434 18.4535 6.9786 18.5807 7.32592C18.6907 7.60742 18.8207 8.03142 18.8572 8.80992C18.8932 9.65392 18.9037 9.90942 18.9037 12.0444C18.9037 14.1794 18.8932 14.4349 18.8542 15.2789C18.8122 16.0574 18.6822 16.4814 18.5727 16.7629C18.4212 17.1384 18.2522 17.4009 17.9732 17.6849C17.7133 17.9488 17.3986 18.1523 17.0512 18.2809C16.7732 18.3909 16.3432 18.5209 15.5617 18.5574C14.7132 18.5934 14.4632 18.6039 12.3222 18.6039C10.1812 18.6039 9.93172 18.5934 9.08221 18.5544C8.30371 18.5124 7.87422 18.3824 7.59272 18.2729C7.21272 18.1214 6.95221 17.9524 6.67321 17.6734C6.39171 17.3919 6.21271 17.1239 6.07471 16.7514C5.96271 16.4734 5.83471 16.0434 5.79321 15.2619C5.76471 14.4234 5.75121 14.1634 5.75121 12.0324C5.75121 9.90242 5.76471 9.64192 5.79321 8.79292C5.83471 8.01142 5.96271 7.58242 6.07471 7.30342C6.21271 6.92292 6.39222 6.66292 6.67321 6.38142C6.95171 6.10292 7.21272 5.92292 7.59272 5.78192C7.87422 5.67242 8.29322 5.54242 9.07472 5.50342C9.92321 5.47292 10.1732 5.46192 12.3112 5.46192L12.3442 5.48492ZM12.3442 7.93842C11.8049 7.93822 11.2708 8.04431 10.7725 8.25061C10.2742 8.45691 9.8214 8.75939 9.44004 9.14075C9.05868 9.52211 8.7562 9.97489 8.5499 10.4732C8.3436 10.9715 8.23752 11.5056 8.23772 12.0449C8.23752 12.5843 8.3436 13.1183 8.5499 13.6166C8.7562 14.115 9.05868 14.5677 9.44004 14.9491C9.8214 15.3305 10.2742 15.6329 10.7725 15.8392C11.2708 16.0455 11.8049 16.1516 12.3442 16.1514C12.8835 16.1516 13.4176 16.0455 13.9159 15.8392C14.4143 15.6329 14.867 15.3305 15.2484 14.9491C15.6298 14.5677 15.9322 14.115 16.1385 13.6166C16.3448 13.1183 16.4509 12.5843 16.4507 12.0449C16.4509 11.5056 16.3448 10.9715 16.1385 10.4732C15.9322 9.97489 15.6298 9.52211 15.2484 9.14075C14.867 8.75939 14.4143 8.45691 13.9159 8.25061C13.4176 8.04431 12.8835 7.93822 12.3442 7.93842ZM12.3442 14.7114C10.8702 14.7114 9.67771 13.5189 9.67771 12.0449C9.67771 10.5709 10.8702 9.37842 12.3442 9.37842C13.8182 9.37842 15.0107 10.5709 15.0107 12.0449C15.0107 13.5189 13.8182 14.7114 12.3442 14.7114ZM17.5762 7.77442C17.5759 8.02925 17.4745 8.27356 17.2942 8.45366C17.114 8.63376 16.8695 8.73492 16.6147 8.73492C16.4887 8.73492 16.3639 8.7101 16.2475 8.66188C16.1311 8.61367 16.0253 8.54299 15.9362 8.45389C15.8471 8.36479 15.7765 8.25902 15.7283 8.14261C15.68 8.02619 15.6552 7.90143 15.6552 7.77542C15.6552 7.64942 15.68 7.52465 15.7283 7.40824C15.7765 7.29183 15.8471 7.18605 15.9362 7.09695C16.0253 7.00786 16.1311 6.93718 16.2475 6.88896C16.3639 6.84074 16.4887 6.81592 16.6147 6.81592C17.1432 6.81592 17.5762 7.24592 17.5762 7.77442Z" fill="#A6AAB7"/>
</svg>
