<svg viewBox="0 0 23 19" fill="none" xmlns="http://www.w3.org/2000/svg">
<path fill-rule="evenodd" clip-rule="evenodd" d="M18.5104 18.4995C20.8363 16.1119 22.2593 12.9089 22.2593 9.38806C22.2593 5.97586 20.9228 2.86224 18.7232 0.5L17.7795 1.09608C19.8676 3.28279 21.1412 6.19317 21.1412 9.38806C21.1412 12.6919 19.7793 15.6914 17.5632 17.9012L18.5104 18.4995ZM0.402344 7.58132V12.3315H4.16603L8.58532 16.0648H9.50758V3.90002H8.58532L3.85417 7.58132H0.402344ZM15.4609 2.89401C17.2218 4.54406 18.3144 6.84406 18.3144 9.38815C18.3144 12.0425 17.125 14.4311 15.2283 16.0931L14.2623 15.483C16.0582 14.0118 17.1962 11.8271 17.1962 9.38815C17.1962 7.06028 16.1595 4.96402 14.5035 3.49874L15.4609 2.89401ZM14.0576 9.35222C14.0576 7.57428 13.3646 5.96523 12.2452 4.80307L11.3333 5.37907C12.3915 6.31081 13.0663 7.72233 13.0663 9.30233C13.0663 11.0597 12.2315 12.6087 10.9627 13.5209L11.9784 14.1624C13.2535 12.9867 14.0576 11.2674 14.0576 9.35222Z" fill="#A6AAB7"/>
</svg>
