<svg width="20" height="18" viewBox="0 0 20 18" fill="none" xmlns="http://www.w3.org/2000/svg">
    <path
        d="M18.8692 15.3653L19.1402 15.3662C19.4454 15.3662 19.7217 15.0587 19.7217 14.6808V3.52464C19.7217 3.14676 19.4545 2.83662 19.1491 2.83662H19.1398L18.8742 2.83844C18.5689 2.83844 18.2979 3.14727 18.2979 3.52515V14.68C18.2978 15.0579 18.5642 15.3653 18.8692 15.3653Z"
        fill="#F6F6F6" />
    <path
        d="M1.89422 15.6512L1.89393 15.6514C1.82503 15.6944 1.7656 15.7266 1.71533 15.7506C1.71493 15.7364 1.71471 15.7216 1.71472 15.706V15.7058V2.41875C1.71472 2.40818 1.71479 2.39793 1.71492 2.38798C1.76325 2.41066 1.81821 2.44011 1.87944 2.47831L1.87991 2.4786L12.0099 8.79317C12.0101 8.79328 12.0103 8.79339 12.0104 8.7935C12.0105 8.79352 12.0105 8.79354 12.0105 8.79356C12.189 8.90501 12.2704 9.00051 12.3016 9.04792C12.306 9.05458 12.3093 9.06016 12.3119 9.06469C12.3093 9.06936 12.3059 9.07516 12.3013 9.08219C12.2718 9.12753 12.193 9.22132 12.0163 9.33159L12.0161 9.33169L1.89422 15.6512ZM12.3192 9.08034C12.3192 9.08033 12.3189 9.07965 12.3186 9.07835L12.3192 9.08034ZM12.3178 9.05208C12.3182 9.05048 12.3185 9.04964 12.3186 9.04962C12.3186 9.0496 12.3185 9.0504 12.3178 9.05208Z"
        fill="#F6F6F6" stroke="#F6F6F6" stroke-width="3" />
</svg>