<svg width="25" height="25" viewBox="0 0 25 25" fill="none" xmlns="http://www.w3.org/2000/svg">
<path d="M20.9674 7.57985C20.8702 7.18078 20.6723 6.81513 20.3936 6.51984C20.1149 6.22455 19.7654 6.01008 19.3802 5.89809C17.973 5.54492 12.3442 5.54492 12.3442 5.54492C12.3442 5.54492 6.71544 5.54492 5.30824 5.93173C4.9231 6.04372 4.57353 6.25819 4.29485 6.55348C4.01617 6.84877 3.81824 7.21441 3.72105 7.61349C3.46351 9.08129 3.33754 10.5703 3.34471 12.0617C3.33553 13.5644 3.46151 15.0648 3.72105 16.5436C3.82819 16.9303 4.03056 17.282 4.30859 17.5649C4.58663 17.8477 4.93093 18.052 5.30824 18.1581C6.71544 18.5449 12.3442 18.5449 12.3442 18.5449C12.3442 18.5449 17.973 18.5449 19.3802 18.1581C19.7654 18.0461 20.1149 17.8317 20.3936 17.5364C20.6723 17.2411 20.8702 16.8754 20.9674 16.4764C21.223 15.0196 21.3489 13.542 21.3438 12.0617C21.353 10.559 21.227 9.0587 20.9674 7.57985V7.57985Z" stroke="#A6AAB7" stroke-width="2" stroke-linecap="round" stroke-linejoin="round"/>
<path d="M10.3442 15.5449L15.3442 12.5449L10.3442 9.54492V15.5449Z" stroke="#A6AAB7" stroke-width="2" stroke-linecap="round" stroke-linejoin="round"/>
</svg>
