<svg width="25" height="25" viewBox="0 0 25 25" fill="none" xmlns="http://www.w3.org/2000/svg">
    <g clip-path="url(#clip5)">
        <path
            d="M24.2358 5.07315C23.3433 5.46465 22.3923 5.72415 21.4008 5.85015C22.4208 5.24115 23.1993 4.28415 23.5653 3.13065C22.6143 3.69765 21.5643 4.09815 20.4453 4.32165C19.5423 3.36015 18.2553 2.76465 16.8513 2.76465C14.1273 2.76465 11.9343 4.97565 11.9343 7.68615C11.9343 8.07615 11.9673 8.45115 12.0483 8.80815C7.95784 8.60865 4.33834 6.64815 1.90684 3.66165C1.48234 4.39815 1.23334 5.24115 1.23334 6.14865C1.23334 7.85265 2.11084 9.36315 3.41884 10.2376C2.62834 10.2226 1.85284 9.99315 1.19584 9.63165C1.19584 9.64665 1.19584 9.66615 1.19584 9.68565C1.19584 12.0766 2.90134 14.0626 5.13784 14.5201C4.73734 14.6296 4.30084 14.6821 3.84784 14.6821C3.53284 14.6821 3.21484 14.6641 2.91634 14.5981C3.55384 16.5466 5.36284 17.9791 7.51384 18.0256C5.83984 19.3351 3.71434 20.1241 1.41334 20.1241C1.00984 20.1241 0.62284 20.1061 0.23584 20.0566C2.41534 21.4621 4.99834 22.2646 7.78384 22.2646C16.8378 22.2646 21.7878 14.7646 21.7878 8.26365C21.7878 8.04615 21.7803 7.83615 21.7698 7.62765C22.7463 6.93465 23.5668 6.06915 24.2358 5.07315Z"
            fill="#03A9F4" />
    </g>
    <defs>
        <clipPath id="clip5">
            <rect width="24" height="24" fill="white" transform="translate(0.23584 0.514648)" />
        </clipPath>
    </defs>
</svg>