<svg width="25" height="25" viewBox="0 0 25 25" fill="none" xmlns="http://www.w3.org/2000/svg">
<g clip-path="url(#clip0)">
<path d="M11.979 19.3039H13.4131C13.4131 19.3039 13.8467 19.2559 14.0672 19.0173C14.2712 18.7983 14.2637 18.3873 14.2637 18.3873C14.2637 18.3873 14.2352 16.4627 15.1293 16.1791C16.0098 15.9001 17.1409 18.0393 18.3395 18.8628C19.2456 19.4854 19.9341 19.3489 19.9341 19.3489L23.1399 19.3039C23.1399 19.3039 24.817 19.2004 24.0219 17.8818C23.9574 17.7738 23.5584 16.9067 21.6383 15.1246C19.6281 13.2584 19.8981 13.5614 22.3193 10.3347C23.7939 8.36955 24.3835 7.16946 24.1989 6.65643C24.0234 6.16739 22.9389 6.2964 22.9389 6.2964L19.3326 6.3174C19.3326 6.3174 19.0656 6.2814 18.866 6.39991C18.6725 6.51691 18.548 6.78693 18.548 6.78693C18.548 6.78693 17.9765 8.30805 17.2144 9.60114C15.6078 12.3298 14.9643 12.4739 14.7017 12.3043C14.0912 11.9098 14.2442 10.7172 14.2442 9.87116C14.2442 7.22647 14.6447 6.12389 13.4627 5.83886C13.0696 5.74436 12.7816 5.68135 11.778 5.67085C10.4909 5.65735 9.40035 5.67535 8.7838 5.97687C8.37277 6.17789 8.05625 6.62642 8.24977 6.65193C8.48828 6.68343 9.02832 6.79744 9.31484 7.18746C9.68537 7.69 9.67187 8.82109 9.67187 8.82109C9.67187 8.82109 9.88489 11.9338 9.17533 12.3208C8.6878 12.5864 8.02025 12.0448 6.58764 9.56814C5.85409 8.30055 5.29905 6.89794 5.29905 6.89794C5.29905 6.89794 5.19254 6.63692 5.00203 6.49741C4.77101 6.3279 4.44699 6.2739 4.44699 6.2739L1.01773 6.2949C1.01773 6.2949 0.503194 6.3099 0.31418 6.53342C0.146168 6.73293 0.30068 7.14396 0.30068 7.14396C0.30068 7.14396 2.98588 13.4249 6.0251 16.5917C8.81381 19.4944 11.979 19.3039 11.979 19.3039Z" fill="#1E88E5"/>
</g>
<defs>
<clipPath id="clip0">
<rect width="24" height="24" fill="white" transform="translate(0.23584 0.514648)"/>
</clipPath>
</defs>
</svg>
