<svg  viewBox="0 0 19 18" fill="none" xmlns="http://www.w3.org/2000/svg">
<g clip-path="url(#clip0)">
<path d="M9.58899 1.08984C4.64567 1.08984 0.588989 5.11137 0.588989 10.0547V14.2734C0.588989 15.1458 1.29865 15.8555 2.17102 15.8555H2.69836V10.582H2.17102C1.98525 10.582 1.80944 10.6201 1.64368 10.6792V10.0547C1.64368 5.69278 5.22708 2.14453 9.58899 2.14453C13.9509 2.14453 17.5343 5.69278 17.5343 10.0547V10.6792C17.3685 10.6201 17.1927 10.582 17.007 10.582H16.4796V15.8555H17.007C17.8793 15.8555 18.589 15.1458 18.589 14.2734V10.0547C18.589 5.11137 14.5323 1.08984 9.58899 1.08984Z" fill="white"/>
<path d="M5.33508 9.52734H4.80774C4.22524 9.52734 3.75305 9.99953 3.75305 10.582V15.8555C3.75305 16.438 4.22524 16.9102 4.80774 16.9102H5.33508C5.62632 16.9102 5.86243 16.674 5.86243 16.3828V10.0547C5.86243 9.76345 5.62632 9.52734 5.33508 9.52734Z" fill="white"/>
<path d="M14.3702 9.52734H13.8429C13.5517 9.52734 13.3156 9.76345 13.3156 10.0547V16.3828C13.3156 16.674 13.5517 16.9102 13.8429 16.9102H14.3702C14.9527 16.9102 15.4249 16.438 15.4249 15.8555V10.582C15.4249 9.99953 14.9527 9.52734 14.3702 9.52734Z" fill="white"/>
</g>
<defs>
<clipPath id="clip0">
<rect width="18" height="18" fill="white" transform="translate(0.588989)"/>
</clipPath>
</defs>
</svg>
