<svg width="25" height="25" viewBox="0 0 25 25" fill="none" xmlns="http://www.w3.org/2000/svg">
<path fill-rule="evenodd" clip-rule="evenodd" d="M18.3652 11.2754C18.3652 15.1414 15.2312 18.2754 11.3652 18.2754C7.49924 18.2754 4.36523 15.1414 4.36523 11.2754C4.36523 7.4094 7.49924 4.27539 11.3652 4.27539C15.2312 4.27539 18.3652 7.4094 18.3652 11.2754ZM16.9829 18.3073C15.4433 19.5389 13.4903 20.2754 11.3652 20.2754C6.39467 20.2754 2.36523 16.246 2.36523 11.2754C2.36523 6.30483 6.39467 2.27539 11.3652 2.27539C16.3358 2.27539 20.3652 6.30483 20.3652 11.2754C20.3652 13.4004 19.6288 15.3534 18.3971 16.8931L21.8401 20.336C22.2307 20.7266 22.2307 21.3597 21.8401 21.7503C21.4496 22.1408 20.8164 22.1408 20.4259 21.7503L16.9829 18.3073Z" fill="#A6AAB7"/>
</svg>
