<svg width="22" height="22" viewBox="0 0 22 22" fill="none" xmlns="http://www.w3.org/2000/svg">
<path fill-rule="evenodd" clip-rule="evenodd" d="M11.167 0.276367C10.5468 0.276367 10.0439 0.779202 10.0439 1.39948V10.2142H1.50825C0.887968 10.2142 0.385132 10.717 0.385132 11.3373C0.385132 11.9576 0.887966 12.4604 1.50825 12.4604H10.0439V20.7171C10.0439 21.3374 10.5468 21.8402 11.167 21.8402C11.7873 21.8402 12.2902 21.3374 12.2902 20.7171V12.4604H20.8258C21.4461 12.4604 21.949 11.9576 21.949 11.3373C21.949 10.717 21.4461 10.2142 20.8258 10.2142H12.2902V1.39948C12.2902 0.779203 11.7873 0.276367 11.167 0.276367Z" fill="#0191D3" stroke="#0191D3"/>
</svg>
