<svg viewBox="0 0 24 19" fill="none" xmlns="http://www.w3.org/2000/svg">
<path fill-rule="evenodd" clip-rule="evenodd" d="M14.6168 0.94478C15.2834 0.565531 16.1112 1.047 16.1112 1.81397V2.3379H16.1402C20.2749 2.3379 23.6268 5.68978 23.6268 9.82454C23.6268 13.9593 20.2749 17.3112 16.1402 17.3112H16.0094C15.4571 17.3112 15.0094 16.8635 15.0094 16.3112C15.0094 15.7589 15.4571 15.3112 16.0094 15.3112H16.1402C19.1704 15.3112 21.6268 12.8547 21.6268 9.82454C21.6268 6.79435 19.1704 4.3379 16.1402 4.3379H16.1112V4.86184C16.1112 5.62881 15.2834 6.11028 14.6168 5.73103L11.938 4.2071C11.2639 3.82365 11.2639 2.85216 11.938 2.46871L14.6168 0.94478ZM7.93781 4.3379C4.90762 4.3379 2.45117 6.79435 2.45117 9.82454C2.45117 12.8547 4.90762 15.3112 7.9378 15.3112H7.96674V14.7872C7.96674 14.0203 8.79457 13.5388 9.46121 13.918L12.14 15.442C12.814 15.8254 12.814 16.7969 12.14 17.1804L9.46121 18.7043C8.79456 19.0835 7.96674 18.6021 7.96674 17.8351V17.3112H7.9378C3.80305 17.3112 0.451172 13.9593 0.451172 9.82454C0.451172 5.68978 3.80305 2.3379 7.93781 2.3379H8.06856C8.62084 2.3379 9.06856 2.78562 9.06856 3.3379C9.06856 3.89019 8.62084 4.3379 8.06856 4.3379H7.93781Z" fill="#A6AAB7"/>
</svg>
