<svg width="25" height="25" viewBox="0 0 25 25" fill="none" xmlns="http://www.w3.org/2000/svg">
<g clip-path="url(#clip0)">
<path d="M12.8742 22.6572C12.7642 22.6572 12.6541 22.6572 12.5441 22.5442H12.4341C10.0134 21.3013 4.2919 17.7985 2.31137 12.2617C1.98128 11.2448 1.21108 7.06401 3.63172 4.46514C5.0621 2.88322 6.38245 2.65723 7.26269 2.65723C9.35325 2.65723 11.5538 3.90016 12.8742 5.70807C14.1945 3.78717 16.1751 2.65723 18.4857 2.65723C19.3659 2.65723 20.6863 2.88322 22.2267 4.46514C24.6473 7.06401 23.8771 11.3578 23.547 12.2617C21.5665 17.9115 15.7349 21.3013 13.4243 22.5442C13.2043 22.6572 12.9842 22.6572 12.8742 22.6572Z" stroke="white" stroke-width="2" stroke-linecap="round" stroke-linejoin="round"/>
</g>
<defs>
<clipPath id="clip0">
<rect width="24" height="24" fill="white" transform="translate(0.929199 0.657227)"/>
</clipPath>
</defs>
</svg>
