<svg  viewBox="0 0 100 21" fill="none" xmlns="http://www.w3.org/2000/svg">
<path d="M3.45323 19.8274V0.75939H0.765234V20.2754H14.7932V19.8274H3.45323ZM19.9726 10.5314C19.9726 17.6714 25.2366 20.6954 31.0046 20.7234C36.8006 20.6954 42.0646 17.6714 42.0646 10.5314C42.0646 3.53139 36.8006 0.33939 31.0046 0.33939C25.2366 0.33939 19.9726 3.53139 19.9726 10.5314ZM31.0046 0.78739C35.2046 0.78739 39.2646 3.25139 39.2646 10.5314C39.2646 17.8394 35.2046 20.3034 31.0046 20.3034C26.8326 20.3034 22.7726 17.8394 22.7726 10.5314C22.7726 3.25139 26.8326 0.78739 31.0046 0.78739ZM49.6351 10.5314C49.6351 16.3554 53.5271 20.7234 60.1351 20.7234C65.0351 20.7234 68.2551 18.9874 69.4591 14.1994V20.2754H69.9351V10.3634H66.8271C66.8271 10.3634 67.5551 20.1914 60.1351 20.1914C55.9631 20.1914 52.7431 16.8034 52.7431 10.5314C52.7431 4.59539 55.4031 0.78739 60.1351 0.78739C63.0191 0.78739 67.3311 1.93539 67.9191 5.32339L68.3671 5.26739C68.0031 3.05539 65.3991 0.33939 60.1351 0.33939C53.5271 0.33939 49.6351 4.62339 49.6351 10.5314ZM77.7663 10.5314C77.7663 17.6714 83.0303 20.6954 88.7983 20.7234C94.5943 20.6954 99.8583 17.6714 99.8583 10.5314C99.8583 3.53139 94.5943 0.33939 88.7983 0.33939C83.0303 0.33939 77.7663 3.53139 77.7663 10.5314ZM88.7983 0.78739C92.9983 0.78739 97.0583 3.25139 97.0583 10.5314C97.0583 17.8394 92.9983 20.3034 88.7983 20.3034C84.6263 20.3034 80.5663 17.8394 80.5663 10.5314C80.5663 3.25139 84.6263 0.78739 88.7983 0.78739Z" fill="white"/>
</svg>
