<svg viewBox="0 0 236 48" fill="none" xmlns="http://www.w3.org/2000/svg">
<path d="M19.3282 46.4824L6.90634 10.7109H6.67197C7.004 16.0234 7.17001 21.0039 7.17001 25.6523V46.4824H0.812592V3.65039H10.6856L22.5802 37.7227H22.756L35.002 3.65039H44.9044V46.4824H38.1661V25.3008C38.1661 23.1719 38.2149 20.3984 38.3126 16.9805C38.4298 13.5625 38.5274 11.4922 38.6056 10.7695H38.3712L25.5099 46.4824H19.3282ZM62.336 46.4824H55.4513V14.0801H62.336V46.4824ZM55.0411 5.49609C55.0411 4.26562 55.3731 3.31836 56.0372 2.6543C56.7208 1.99023 57.6876 1.6582 58.9376 1.6582C60.1485 1.6582 61.086 1.99023 61.7501 2.6543C62.4337 3.31836 62.7755 4.26562 62.7755 5.49609C62.7755 6.66797 62.4337 7.5957 61.7501 8.2793C61.086 8.94336 60.1485 9.27539 58.9376 9.27539C57.6876 9.27539 56.7208 8.94336 56.0372 8.2793C55.3731 7.5957 55.0411 6.66797 55.0411 5.49609ZM83.1368 47.0684C79.0938 47.0684 75.9395 45.6035 73.6739 42.6738C71.4083 39.7441 70.2755 35.6328 70.2755 30.3398C70.2755 25.0273 71.4181 20.8965 73.7032 17.9473C76.0079 14.9785 79.1915 13.4941 83.254 13.4941C87.5118 13.4941 90.754 15.0664 92.9806 18.2109H93.3321C93.0001 15.8867 92.8341 14.0508 92.8341 12.7031V0.896484H99.7481V46.4824H94.3575L93.1563 42.2344H92.8341C90.627 45.457 87.3946 47.0684 83.1368 47.0684ZM84.9825 41.502C87.8145 41.502 89.8751 40.7109 91.1642 39.1289C92.4532 37.5273 93.1173 34.9395 93.1563 31.3652V30.3984C93.1563 26.3164 92.4923 23.416 91.1642 21.6973C89.836 19.9785 87.756 19.1191 84.9239 19.1191C82.502 19.1191 80.6368 20.1055 79.3282 22.0781C78.0196 24.0312 77.3653 26.8242 77.3653 30.457C77.3653 34.0508 78.0001 36.7949 79.2696 38.6895C80.5392 40.5645 82.4435 41.502 84.9825 41.502ZM138.098 46.4824H131.184V26.5605C131.184 24.0605 130.676 22.1953 129.66 20.9648C128.664 19.7344 127.072 19.1191 124.885 19.1191C121.994 19.1191 119.865 19.9883 118.498 21.7266C117.15 23.4453 116.477 26.3359 116.477 30.3984V46.4824H109.592V0.896484H116.477V12.4688C116.477 14.3242 116.359 16.3066 116.125 18.416H116.565C117.502 16.8535 118.801 15.6426 120.461 14.7832C122.141 13.9238 124.094 13.4941 126.32 13.4941C134.172 13.4941 138.098 17.4492 138.098 25.3594V46.4824ZM167.951 46.4824L166.574 41.9707H166.34C164.777 43.9434 163.205 45.291 161.623 46.0137C160.041 46.7168 158.01 47.0684 155.529 47.0684C152.346 47.0684 149.856 46.209 148.059 44.4902C146.281 42.7715 145.393 40.3398 145.393 37.1953C145.393 33.8555 146.633 31.3359 149.113 29.6367C151.594 27.9375 155.373 27.0098 160.451 26.8535L166.047 26.6777V24.9492C166.047 22.8789 165.559 21.3359 164.582 20.3203C163.625 19.2852 162.131 18.7676 160.1 18.7676C158.44 18.7676 156.848 19.0117 155.324 19.5C153.801 19.9883 152.336 20.5645 150.93 21.2285L148.703 16.3066C150.461 15.3887 152.385 14.6953 154.475 14.2266C156.565 13.7383 158.537 13.4941 160.393 13.4941C164.514 13.4941 167.619 14.3926 169.709 16.1895C171.818 17.9863 172.873 20.8086 172.873 24.6562V46.4824H167.951ZM157.697 41.7949C160.197 41.7949 162.199 41.1016 163.703 39.7148C165.227 38.3086 165.988 36.3457 165.988 33.8262V31.0137L161.828 31.1895C158.586 31.3066 156.223 31.8535 154.738 32.8301C153.274 33.7871 152.541 35.2617 152.541 37.2539C152.541 38.6992 152.971 39.8223 153.83 40.623C154.69 41.4043 155.979 41.7949 157.697 41.7949ZM198.918 13.4941C200.305 13.4941 201.447 13.5918 202.346 13.7871L201.672 20.2031C200.695 19.9688 199.68 19.8516 198.625 19.8516C195.871 19.8516 193.635 20.75 191.916 22.5469C190.217 24.3438 189.367 26.6777 189.367 29.5488V46.4824H182.483V14.0801H187.873L188.781 19.793H189.133C190.207 17.8594 191.604 16.3262 193.322 15.1934C195.061 14.0605 196.926 13.4941 198.918 13.4941ZM219.309 47.0684C215.266 47.0684 212.111 45.6035 209.846 42.6738C207.58 39.7441 206.447 35.6328 206.447 30.3398C206.447 25.0273 207.59 20.8965 209.875 17.9473C212.18 14.9785 215.363 13.4941 219.426 13.4941C223.684 13.4941 226.926 15.0664 229.152 18.2109H229.504C229.172 15.8867 229.006 14.0508 229.006 12.7031V0.896484H235.92V46.4824H230.529L229.328 42.2344H229.006C226.799 45.457 223.566 47.0684 219.309 47.0684ZM221.154 41.502C223.986 41.502 226.047 40.7109 227.336 39.1289C228.625 37.5273 229.289 34.9395 229.328 31.3652V30.3984C229.328 26.3164 228.664 23.416 227.336 21.6973C226.008 19.9785 223.928 19.1191 221.096 19.1191C218.674 19.1191 216.809 20.1055 215.5 22.0781C214.191 24.0312 213.537 26.8242 213.537 30.457C213.537 34.0508 214.172 36.7949 215.441 38.6895C216.711 40.5645 218.615 41.502 221.154 41.502Z" fill="white"/>
</svg>
